<?xml version="1.0" encoding="utf-8"?>
<!-- Generator: Adobe Illustrator 26.0.3, SVG Export Plug-In . SVG Version: 6.00 Build 0)  -->
<svg version="1.1" id="Layer_1" xmlns="http://www.w3.org/2000/svg" xmlns:xlink="http://www.w3.org/1999/xlink" x="0px" y="0px"
	 width="16px" height="16px" viewBox="0 0 16 16" enable-background="new 0 0 16 16" xml:space="preserve">
<g>
	<g>
		
			<radialGradient id="SVGID_1_" cx="8" cy="6.3177" r="10.8236" gradientTransform="matrix(0.7391 0 0 0.7391 2.087 3.3304)" gradientUnits="userSpaceOnUse">
			<stop  offset="0" style="stop-color:#FFFFFF"/>
			<stop  offset="0.0611" style="stop-color:#FFFEE4"/>
			<stop  offset="0.1874" style="stop-color:#FFFDB3"/>
			<stop  offset="0.3171" style="stop-color:#FFFC89"/>
			<stop  offset="0.448" style="stop-color:#FFFB67"/>
			<stop  offset="0.5803" style="stop-color:#FFFB4C"/>
			<stop  offset="0.7149" style="stop-color:#FFFA39"/>
			<stop  offset="0.853" style="stop-color:#FFFA2E"/>
			<stop  offset="1" style="stop-color:#FFFA2A"/>
		</radialGradient>
		<circle fill="url(#SVGID_1_)" cx="8" cy="8" r="8"/>
	</g>
	<g>
		<g>
			<polyline fill="#42210B" points="2.73,9.75 0.94,15.05 15.06,15.11 13.55,9.92 			"/>
			<path fill="#FFFFFF" stroke="#000000" stroke-width="0.0467" stroke-miterlimit="10" d="M2.95,12.82l-0.39,1.06
				c0,0,4.07-0.73,5.58,0.33c0,0,2.12-1.12,5.35-0.33l-0.39-1.23"/>
			<path fill="#FFFFFF" stroke="#000000" stroke-width="0.0476" stroke-miterlimit="10" d="M8.2,10.25c0,0-2.12-2.79-5.19-0.73
				l-0.67,3.68c0,0,5.3-0.56,5.8,0.78L8.2,10.25z"/>
			<path fill="#FFFFFF" stroke="#000000" stroke-width="0.0467" stroke-miterlimit="10" d="M8.25,10.12c0,0,2.17-2.69,5.02-0.49
				l0.47,3.71c0,0-5.06-0.8-5.61,0.51L8.25,10.12z"/>
		</g>
	</g>
	<g>
		<polygon fill="#FF0000" points="2.7,3.28 2.7,6.78 5.75,6.78 9.55,9.12 9.55,0.95 5.75,3.28 		"/>
		<g>
			<path fill="#FF0000" d="M12.09,7.22c0.49-0.64,0.78-1.44,0.78-2.31l0,0c-0.01-0.78-0.25-1.5-0.67-2.1l0,0
				c-0.07-0.1-0.04-0.23,0.05-0.3l0,0c0.1-0.07,0.23-0.04,0.3,0.05l0,0c0.46,0.66,0.74,1.47,0.74,2.34l0,0
				c0.01,0.97-0.32,1.86-0.87,2.57l0,0v0c-0.07,0.09-0.21,0.11-0.3,0.04l0,0c-0.05-0.04-0.08-0.1-0.08-0.17l0,0
				C12.05,7.31,12.06,7.26,12.09,7.22L12.09,7.22z"/>
			<path fill="#FF0000" d="M11.3,6.68c0.38-0.48,0.61-1.09,0.61-1.75l0,0c0-0.59-0.19-1.13-0.51-1.57l0,0
				c-0.07-0.1-0.05-0.23,0.05-0.3l0,0c0.1-0.07,0.23-0.05,0.3,0.05l0,0c0.36,0.51,0.58,1.14,0.59,1.82l0,0
				c0.01,0.77-0.26,1.47-0.7,2.03l0,0c-0.07,0.09-0.21,0.11-0.3,0.03l0,0c-0.05-0.04-0.08-0.1-0.08-0.17l0,0
				C11.25,6.76,11.26,6.72,11.3,6.68L11.3,6.68z"/>
			<path fill="#FF0000" d="M10.35,6.08c0.28-0.3,0.45-0.7,0.45-1.15l0,0c0-0.4-0.15-0.77-0.39-1.06l0,0
				c-0.08-0.09-0.06-0.23,0.03-0.3l0,0c0.09-0.08,0.23-0.06,0.3,0.03l0,0c0.3,0.36,0.49,0.82,0.49,1.33l0,0
				c0,0.56-0.21,1.07-0.56,1.44l0,0l0,0c-0.08,0.09-0.22,0.09-0.3,0.01l0,0c-0.05-0.04-0.07-0.1-0.07-0.16l0,0
				C10.29,6.17,10.31,6.12,10.35,6.08L10.35,6.08z"/>
		</g>
	</g>
</g>
</svg>
