<?xml version="1.0" standalone="no"?>
<!DOCTYPE svg PUBLIC "-//W3C//DTD SVG 20010904//EN"
 "http://www.w3.org/TR/2001/REC-SVG-20010904/DTD/svg10.dtd">
<svg version="1.0" xmlns="http://www.w3.org/2000/svg"
 width="512.000000pt" height="512.000000pt" viewBox="0 0 512.000000 512.000000"
 preserveAspectRatio="xMidYMid meet">
<metadata>
Created by potrace 1.14, written by Peter Selinger 2001-2017
</metadata>
<g transform="translate(0.000000,512.000000) scale(0.100000,-0.100000)"
fill="#000000" stroke="none">
<path d="M2875 4664 c-145 -91 -368 -229 -403 -249 -10 -5 -58 -35 -107 -66
-91 -57 -214 -133 -405 -250 l-105 -64 -460 -1 c-253 -1 -467 -2 -475 -3 -13
-1 -15 -67 -15 -546 l0 -545 476 0 476 0 94 -59 c52 -32 272 -167 489 -301
217 -134 439 -270 493 -303 l98 -61 -33 -19 c-87 -52 -149 -95 -216 -150 l-73
-59 -100 1 -101 1 -66 54 c-141 113 -247 173 -396 225 -121 43 -238 60 -371
55 -151 -5 -208 -15 -333 -61 -37 -13 -71 -25 -77 -27 -23 -6 -76 -33 -168
-85 -93 -52 -99 -57 -110 -99 -11 -41 -13 -43 -43 -39 l-32 5 -118 -352 c-64
-193 -151 -448 -191 -566 -41 -118 -76 -222 -78 -230 -2 -8 -38 -116 -80 -240
-42 -124 -79 -236 -81 -250 l-5 -25 538 -2 c1441 -4 3792 -15 3826 -16 39 -2
39 -2 34 30 -3 18 -17 70 -31 115 -36 117 -177 599 -181 622 -4 17 -10 38 -45
151 -15 50 -182 627 -192 668 -10 36 -23 43 -65 38 -13 -2 -22 24 -26 68 -1
17 -21 38 -67 72 -74 55 -278 158 -360 183 -207 62 -441 55 -636 -19 -38 -15
-78 -29 -89 -32 -20 -4 -20 -1 -20 1261 0 849 -3 1266 -10 1265 -5 -1 -77 -43
-160 -95z"/>
<path d="M3886 4269 c-37 -29 -33 -60 19 -144 80 -127 142 -296 163 -440 9
-66 8 -286 -1 -350 -25 -157 -99 -342 -197 -487 -45 -66 -51 -80 -43 -103 5
-15 21 -34 36 -43 25 -15 30 -15 54 -2 81 45 242 369 269 539 3 20 8 39 10 42
7 13 18 146 18 229 0 160 -23 300 -72 440 -48 136 -151 316 -189 331 -33 12
-37 12 -67 -12z"/>
<path d="M3631 4104 c-32 -23 -24 -72 21 -144 126 -197 159 -488 83 -715 -24
-70 -80 -180 -125 -243 -50 -70 -44 -121 16 -136 34 -9 58 6 102 67 78 105
138 243 167 383 17 80 24 280 11 339 -3 17 -9 45 -12 64 -11 63 -55 185 -96
263 -67 130 -110 161 -167 122z"/>
<path d="M3314 3935 c-27 -28 -25 -64 6 -100 63 -73 106 -195 109 -310 3 -129
-34 -232 -124 -350 -21 -29 -32 -53 -30 -66 7 -36 35 -59 71 -59 28 0 40 9 79
56 98 120 145 267 140 434 -4 106 -21 172 -71 275 -66 134 -126 174 -180 120z"/>
</g>
</svg>
